<?xml version="1.0" encoding="utf-8"?>
<!-- Generator: Adobe Illustrator 21.0.2, SVG Export Plug-In . SVG Version: 6.00 Build 0)  -->
<svg version="1.1" id="Layer_1" xmlns="http://www.w3.org/2000/svg" xmlns:xlink="http://www.w3.org/1999/xlink" x="0px" y="0px"
	 viewBox="0 0 381.6 424" style="enable-background:new 0 0 381.6 424;" xml:space="preserve">
<style type="text/css">
	.st0{fill:url(#SVGID_1_);}
</style>
<g>
	
		<linearGradient id="SVGID_1_" gradientUnits="userSpaceOnUse" x1="95.4316" y1="48.7117" x2="286.2423" y2="379.2056" gradientTransform="matrix(1 0 0 -1 0 426)">
		<stop  offset="0" style="stop-color:#EC008C"/>
		<stop  offset="1" style="stop-color:#FBB040"/>
	</linearGradient>
	<path class="st0" d="M356.4,87.3L215.9,6.2C209,2.2,200,0,190.8,0c-9.3,0-18.2,2.2-25.2,6.2L25.2,87.3C10.8,95.6,0,114.4,0,130.9
		v162.2c0,16.6,10.8,35.3,25.2,43.6l140.4,81.1c7,4,15.9,6.2,25.2,6.2s18.2-2.2,25.2-6.2l140.5-81.1c14.4-8.3,25.2-27,25.2-43.6
		V130.9C381.6,114.4,370.7,95.6,356.4,87.3z M272.7,259.9c0,27.6-20.5,51.4-47.7,55.6c-0.4,0.1-0.9,0.1-1.3,0.1
		c-4,0-7.5-2.9-8.1-7.1c-0.7-4.5,2.4-8.8,6.9-9.4c19.2-2.9,33.6-19.7,33.6-39.2c0-21.8-17.8-39.6-39.6-39.6H199v87
		c0,4.6-3.7,8.3-8.3,8.3s-8.3-3.7-8.3-8.3v-87H166l-41.5,90.4c-1.3,3-4.4,4.8-7.5,4.8c-1.2,0-2.3-0.2-3.5-0.7c-4.2-1.9-6-6.8-4.1-11
		l39.4-85.9c-23.2-6.9-40.1-28.4-40.1-53.8c0-27.4,19.6-50.7,46.5-55.4l1.1-0.2c4.5-0.7,8.8,2.4,9.4,6.9c0.7,4.5-2.3,8.8-6.9,9.5
		l-0.9,0.1c-19,3.3-32.8,19.7-32.8,39c0,21.8,17.8,39.6,39.6,39.6h25.8h25.8c21.8,0,39.6-17.8,39.6-39.7c0-21.8-17.8-39.6-39.6-39.6
		h-17.5v54.4c0,4.6-3.7,8.3-8.3,8.3s-8.3-3.7-8.3-8.3V116c0-4.5,3.7-8.3,8.3-8.3h25.8c31,0,56.2,25.2,56.2,56.2
		c0,20.3-10.8,38.1-27,47.9C261.9,221.9,272.7,239.6,272.7,259.9z"/>
</g>
</svg>
