<?xml version="1.0" encoding="utf-8"?>
<!-- Generator: Adobe Illustrator 19.2.1, SVG Export Plug-In . SVG Version: 6.00 Build 0)  -->
<svg version="1.1" id="Layer_1" xmlns="http://www.w3.org/2000/svg" xmlns:xlink="http://www.w3.org/1999/xlink" x="0px" y="0px"
	 viewBox="0 0 54.4 54.4" style="enable-background:new 0 0 54.4 54.4;" xml:space="preserve">
<style type="text/css">
	.st0{fill:#3B5666;}
</style>
<g>
	<g>
		<path class="st0" d="M27.2,54.4C12.2,54.4,0,42.2,0,27.2S12.2,0,27.2,0s27.2,12.2,27.2,27.2S42.2,54.4,27.2,54.4z M27.2,1.6
			C13.1,1.6,1.6,13.1,1.6,27.2s11.5,25.6,25.6,25.6s25.6-11.5,25.6-25.6S41.3,1.6,27.2,1.6z"/>
		<path class="st0" d="M35.1,42.4h-7.9c-1.1,0-2.1-0.2-3.1-0.6c-1-0.4-1.8-1-2.5-1.7c-0.7-0.7-1.3-1.6-1.7-2.5c-0.4-1-0.6-2-0.6-3.1
			V12H28v21.7h7.1L35.1,42.4z M20.9,32.8v1.6c0,0.9,0.2,1.7,0.5,2.4c0.3,0.7,0.8,1.4,1.4,2c0.6,0.6,1.2,1,2,1.4
			c0.8,0.5,1.6,0.6,2.5,0.6h6.4v-5.6h-6.4C24.6,35.3,22.3,34.4,20.9,32.8z M20.9,29.2c0,2.3,2.4,4.2,5.6,4.5V13.6h-5.6V29.2z"/>
	</g>
</g>
</svg>
