<?xml version="1.0" encoding="utf-8"?>
<!-- Generator: Adobe Illustrator 19.2.1, SVG Export Plug-In . SVG Version: 6.00 Build 0)  -->
<svg version="1.1" id="Layer_1" xmlns="http://www.w3.org/2000/svg" xmlns:xlink="http://www.w3.org/1999/xlink" x="0px" y="0px"
	 viewBox="0 0 527 263" style="enable-background:new 0 0 527 263;" xml:space="preserve">
<style type="text/css">
	.st0{fill:#3B5666;}
	.st1{fill:#D3E49C;}
	.st2{fill:#62A77B;}
	.st3{fill:#CCCCCC;}
</style>
<g>
	<g>
		<polygon class="st0" points="128.6,42.6 182,69.4 182,129 128.6,155.8 		"/>
		<polygon class="st0" points="134.7,34.5 187,8.4 239.4,34.5 187,60.7 		"/>
		<polygon class="st1" points="134.7,163.9 187,137.7 239.4,163.9 187,190 		"/>
		<polygon class="st2" points="198.2,132.1 250.5,106 302.8,132.1 250.5,158.3 		"/>
		<polygon class="st0" points="192,69.4 245.5,42.6 245.5,97.3 192,124 		"/>
		<polygon class="st1" points="128.6,171.9 182,198.7 182,253.2 128.6,225.5 		"/>
		<polygon class="st1" points="192,198.7 245.5,171.9 245.5,226 192,253.3 		"/>
		<polygon class="st2" points="255.5,166.7 309,139.9 309,194 255.5,221.2 		"/>
	</g>
	<path class="st3" d="M378.8,150.6l-5.3-8.5c0.1-0.1,1.2-0.7,3.2-1.8c2.7-1.5,5.8-3,9.1-4.5c4.7-2.1,9.8-4.3,15.3-6.3
		c6.8-2.5,14-5,21.5-7.2c8.9-2.6,18.3-5,27.9-7.2c11-2.4,22.6-4.5,34.5-6.2c13.2-1.9,27.1-3.4,41.2-4.4l0.7,10
		c-13.9,1-27.5,2.4-40.5,4.3c-11.6,1.7-23,3.7-33.8,6.1c-9.4,2.1-18.6,4.4-27.2,7c-7.3,2.2-14.3,4.5-20.8,7c-5.2,2-10.1,4-14.6,6
		c-3.9,1.8-6.8,3.3-8.6,4.2C379.7,150,378.8,150.6,378.8,150.6z"/>
	<rect x="440.5" y="5.8" class="st3" width="10" height="115.2"/>
	<polygon class="st3" points="417.5,40.9 410.4,33.8 445.5,-1.3 480.6,33.8 473.5,40.9 445.5,12.8 	"/>
	<polygon class="st3" points="417.5,79.3 410.4,72.2 445.5,37.1 480.6,72.2 473.5,79.3 445.5,51.2 	"/>
	<path class="st3" d="M387,30.5h-15V28c0-4.4-3.4-8.1-7.8-8.3l-2.1-0.1l-0.2-2.1C361.2,10.4,355.3,5,348.1,5
		c-7.6,0-13.8,6.2-13.8,13.8l0.1,5.3l-4-2.8c-1.4-1-3.1-1.5-4.8-1.5c-4.6,0-8.4,3.8-8.4,8.4v2.5h-14.9v-5h10.2
		c1.2-6.2,6.6-10.9,13.1-10.9c1.4,0,2.7,0.2,4,0.6C331.2,6.7,338.9,0,348.1,0c9.1,0,16.7,6.4,18.4,15.1c5.2,1.2,9.2,5.3,10.2,10.5
		H387V30.5z"/>
	<rect x="30.1" y="135.1" class="st3" width="10" height="115.2"/>
	<polygon class="st3" points="63.1,170.2 35.1,142.2 7.1,170.2 0,163.2 35.1,128.1 70.2,163.2 	"/>
	<polygon class="st3" points="63.1,208.6 35.1,180.6 7.1,208.6 0,201.6 35.1,166.5 70.2,201.6 	"/>
	<rect x="30.1" y="19.9" class="st3" width="10" height="115.2"/>
	<polygon class="st3" points="63.1,55 35.1,27 7.1,55 0,48 35.1,12.9 70.2,48 	"/>
	<polygon class="st3" points="63.1,93.4 35.1,65.4 7.1,93.4 0,86.4 35.1,51.3 70.2,86.4 	"/>
	<polygon class="st3" points="63.1,131.8 35.1,103.8 7.1,131.8 0,124.8 35.1,89.7 70.2,124.8 	"/>
	<path class="st3" d="M488.6,245.5c-21.2,0-38.4-17.2-38.4-38.4s17.2-38.4,38.4-38.4s38.4,17.2,38.4,38.4S509.8,245.5,488.6,245.5z
		 M488.6,178.8c-15.6,0-28.4,12.7-28.4,28.4s12.7,28.4,28.4,28.4s28.4-12.7,28.4-28.4S504.2,178.8,488.6,178.8z"/>
	<rect x="483.6" y="205.6" class="st3" width="10" height="57.4"/>
</g>
</svg>
