<?xml version="1.0" encoding="utf-8"?>
<!-- Generator: Adobe Illustrator 19.2.1, SVG Export Plug-In . SVG Version: 6.00 Build 0)  -->
<svg version="1.1" id="Layer_1" xmlns="http://www.w3.org/2000/svg" xmlns:xlink="http://www.w3.org/1999/xlink" x="0px" y="0px"
	 viewBox="0 0 527 264" style="enable-background:new 0 0 527 264;" xml:space="preserve">
<style type="text/css">
	.st0{fill:#CCCCCC;}
	.st1{fill:#D3E49C;}
	.st2{fill:#62A77B;}
	.st3{fill:#3B5666;}
</style>
<g>
	<g>
		<path class="st0" d="M36,57.7H0V1h36v4.4H4.9v21h30.5v4.4H4.9v22.4H36V57.7z"/>
		<path class="st0" d="M69.8,58.7c-8.8,0-15.7-3-20.7-9l3.1-3.7c4.8,5.5,10.7,8.2,17.8,8.2c5.2,0,9-1.1,11.3-3.4
			c2.4-2.3,3.5-4.9,3.5-7.9c0-2.3-0.6-4.2-1.9-5.7c-1.2-1.6-2.9-2.8-4.9-3.6c-2-0.8-4.2-1.6-6.6-2.3c-2.4-0.7-4.8-1.4-7.2-2.2
			c-2.4-0.8-4.6-1.7-6.6-2.7S54,23.9,52.7,22c-1.2-1.9-1.9-4.2-1.9-6.8c0-4.5,1.8-8.2,5.4-11c3.6-2.8,8-4.2,13.3-4.2
			c8.2,0,14.6,2.7,19.2,8l-3.2,3.6c-4-4.8-9.4-7.1-16.2-7.1c-3.8,0-7,1-9.5,2.9c-2.5,2-3.8,4.5-3.8,7.5c0,1.9,0.6,3.6,1.9,5
			c1.2,1.4,2.9,2.5,4.9,3.2c2,0.8,4.2,1.5,6.6,2.1c2.4,0.7,4.8,1.4,7.2,2.2c2.4,0.8,4.6,1.8,6.6,2.9s3.6,2.7,4.9,4.8
			c1.2,2.1,1.9,4.5,1.9,7.4c0,4.3-1.6,8.1-4.8,11.3C81.9,57.1,76.8,58.7,69.8,58.7z"/>
		<path class="st0" d="M124.6,58.7c-2.9,0-5.6-0.5-8-1.6s-4.4-2.5-6-4.3s-2.9-4-4-6.5c-1-2.5-1.8-5.2-2.3-7.9
			c-0.5-2.8-0.7-5.8-0.7-8.9c0-5.2,0.7-9.9,2.1-14.1c1.4-4.3,3.8-7.8,7.1-10.8c3.4-2.9,7.5-4.4,12.5-4.4c6.3,0,11.4,2.4,15.3,7.2
			l-2.8,3.5c-3.2-4.2-7.4-6.3-12.5-6.3c-2.9,0-5.5,0.7-7.8,2.2c-2.2,1.4-4,3.4-5.2,5.8s-2.2,5.1-2.8,7.9c-0.6,2.8-0.9,5.8-0.9,9
			c0,1.2,0,2.1,0.1,2.6c1.4-2.3,3.7-4.5,6.7-6.5c3.1-2,6.3-3,9.9-3c5.4,0,9.8,1.5,13.2,4.6c3.4,3.1,5.1,7.5,5.1,13.3
			c0,4.9-1.7,9.2-5.2,12.8C135,56.9,130.4,58.7,124.6,58.7z M124.4,54.3c4.5,0,8-1.4,10.5-4.2c2.5-2.8,3.8-5.9,3.8-9.4
			c0-4.5-1.3-7.9-3.9-10.2c-2.6-2.3-6-3.5-10.3-3.5c-3.1,0-6,0.9-8.8,2.7c-2.8,1.8-5,4.1-6.7,7c0.2,2.9,0.8,5.6,1.9,8.1
			c1,2.5,2.7,4.7,5,6.6C118.2,53.3,121.1,54.3,124.4,54.3z"/>
	</g>
	<rect x="484.7" y="139.7" class="st0" width="10" height="119.3"/>
	<polygon class="st0" points="518.8,175.9 489.7,146.8 460.5,175.9 453.5,168.8 489.7,132.6 525.9,168.8 	"/>
	<polygon class="st0" points="518.8,215.7 489.7,186.5 460.5,215.7 453.5,208.6 489.7,172.4 525.9,208.6 	"/>
	<rect x="484.7" y="20.4" class="st0" width="10" height="119.3"/>
	<polygon class="st0" points="518.8,56.6 489.7,27.5 460.5,56.6 453.5,49.5 489.7,13.3 525.9,49.5 	"/>
	<polygon class="st0" points="518.8,96.4 489.7,67.2 460.5,96.4 453.5,89.3 489.7,53.1 525.9,89.3 	"/>
	<polygon class="st0" points="518.8,136.1 489.7,107 460.5,136.1 453.5,129.1 489.7,92.9 525.9,129.1 	"/>
	<path class="st0" d="M425.8,57.8h-28.3v-2.5c0-10.5-8.2-19.3-18.7-20l-2.1-0.1l-0.2-2.1C375,16.9,361.6,4.7,345.3,4.7
		c-17.2,0-31.3,14-31.3,31.3c0,0.2,0,0.3,0,0.5l0.1,5.2l-4.1-2.8c-3.4-2.4-7.4-3.6-11.5-3.6c-11,0-20,9-20,20v2.5h-28.3v-5h23.4
		c1.3-12.6,12-22.5,24.9-22.5c3.7,0,7.3,0.8,10.5,2.3c1.9-18.4,17.5-32.9,36.3-32.9c18.2,0,33.2,13.1,35.9,30.8
		c11.3,1.7,20.1,10.9,21.2,22.2h23.4V57.8z"/>
	<g>
		<path class="st1" d="M220.6,151.6H85.3c-4,0-7.2-3.2-7.2-7.2V143c0-4,3.2-7.2,7.2-7.2h135.3c4,0,7.2,3.2,7.2,7.2v1.4
			C227.8,148.4,224.6,151.6,220.6,151.6z"/>
		<path class="st2" d="M330,151.6h-75.1c-4,0-7.2-3.2-7.2-7.2v-0.6c0-4,3.2-7.2,7.2-7.2H330c4,0,7.2,3.2,7.2,7.2v0.6
			C337.2,148.4,334,151.6,330,151.6z"/>
	</g>
	<g>
		<path class="st2" d="M85.3,189.2h159.2c4,0,7.2-3.2,7.2-7.2v-1.7c0-4-3.2-7.2-7.2-7.2H85.3c-4,0-7.2,3.2-7.2,7.2v1.7
			C78.1,186,81.4,189.2,85.3,189.2z"/>
		<path class="st1" d="M280.4,189.2h-1.7c-4,0-7.2-3.2-7.2-7.2v-1.7c0-4,3.2-7.2,7.2-7.2h1.7c4,0,7.2,3.2,7.2,7.2v1.7
			C287.6,186,284.3,189.2,280.4,189.2z"/>
	</g>
	<rect x="395.4" y="254" class="st0" width="131.6" height="10"/>
	<g>
		<path class="st1" d="M160.5,226.1H85.3c-4,0-7.2-3.2-7.2-7.2v-0.6c0-4,3.2-7.2,7.2-7.2h75.1c4,0,7.2,3.2,7.2,7.2v0.6
			C167.7,222.9,164.4,226.1,160.5,226.1z"/>
		<path class="st2" d="M388.2,226.6H195.9c-4,0-7.2-3.2-7.2-7.2v-1.7c0-4,3.2-7.2,7.2-7.2h192.2c4,0,7.2,3.2,7.2,7.2v1.7
			C395.4,223.4,392.1,226.6,388.2,226.6z"/>
	</g>
	<g>
		<path class="st3" d="M145.8,114.2H7.2c-4,0-7.2-3.2-7.2-7.2v-1.4c0-4,3.2-7.2,7.2-7.2h138.6c4,0,7.2,3.2,7.2,7.2v1.4
			C153,111,149.7,114.2,145.8,114.2z"/>
		<path class="st3" d="M289.2,114.2H182.3c-4,0-7.2-3.2-7.2-7.2v-1.4c0-4,3.2-7.2,7.2-7.2h106.9c4,0,7.2,3.2,7.2,7.2v1.4
			C296.4,111,293.2,114.2,289.2,114.2z"/>
	</g>
	<g>
		<path class="st3" d="M145.8,263.9H7.2c-4,0-7.2-3.2-7.2-7.2v-1.4c0-4,3.2-7.2,7.2-7.2h138.6c4,0,7.2,3.2,7.2,7.2v1.4
			C153,260.7,149.7,263.9,145.8,263.9z"/>
		<path class="st3" d="M289.2,263.9H182.3c-4,0-7.2-3.2-7.2-7.2v-1.4c0-4,3.2-7.2,7.2-7.2h106.9c4,0,7.2,3.2,7.2,7.2v1.4
			C296.4,260.7,293.2,263.9,289.2,263.9z"/>
	</g>
	<rect x="374.3" y="52.8" class="st0" width="25.8" height="5"/>
</g>
</svg>
